<?xml version="1.0" encoding="utf-8"?>
<!-- Generator: Adobe Illustrator 25.3.1, SVG Export Plug-In . SVG Version: 6.00 Build 0)  -->
<svg version="1.1" id="Layer_1" xmlns="http://www.w3.org/2000/svg" xmlns:xlink="http://www.w3.org/1999/xlink" x="0px" y="0px"
	 viewBox="0 0 48.4 42.8" style="enable-background:new 0 0 48.4 42.8;" xml:space="preserve">
<style type="text/css">
	.st0{fill:#E3E3E3;}
	.st1{fill:#F9B659;}
	.st2{fill:#FFFFFF;}
</style>
<g>
	<rect y="23.6" class="st0" width="32.4" height="1.5"/>
	<rect x="11" y="29.5" class="st0" width="37.4" height="1.5"/>
	<rect x="11" y="35.4" class="st0" width="37.4" height="1.5"/>
	<rect y="41.3" class="st0" width="48.4" height="1.5"/>
	<rect y="17.7" class="st0" width="32.4" height="1.5"/>
	<rect y="11.8" class="st0" width="32.4" height="1.5"/>
	<rect y="5.9" class="st0" width="48.4" height="1.5"/>
	<rect class="st0" width="48.4" height="1.5"/>
</g>
<circle class="st1" cx="41.4" cy="18.8" r="7"/>
<g>
	<g>
		<path class="st2" d="M40.9,20.4c0.1-0.5,0.3-0.8,0.5-1.2c0.2-0.3,0.4-0.7,0.7-1.1c0.2-0.3,0.4-0.5,0.5-0.7s0.2-0.4,0.3-0.7
			c0.1-0.2,0.1-0.5,0.1-0.8l0,0c0-0.6-0.1-1.1-0.4-1.4c-0.3-0.3-0.7-0.5-1.3-0.5s-1,0.2-1.3,0.6c-0.3,0.4-0.5,0.9-0.5,1.7l0,0h-1.1
			l0,0c0-0.7,0.2-1.3,0.4-1.8s0.6-0.9,1-1.1c0.4-0.3,0.9-0.4,1.5-0.4s1.2,0.1,1.6,0.3c0.4,0.2,0.8,0.6,1,1s0.3,1,0.3,1.6l0,0
			c0,0.4-0.1,0.7-0.2,1.1s-0.2,0.6-0.4,0.8c-0.2,0.2-0.4,0.5-0.6,0.8c-0.3,0.4-0.5,0.7-0.7,0.9c-0.2,0.3-0.3,0.6-0.4,1
			s-0.2,0.8-0.2,1.3h-1.1C40.7,21.4,40.8,20.9,40.9,20.4z M40.6,23.3h1.3v1.3h-1.3V23.3z"/>
	</g>
</g>
<g>
	<g>
		<path class="st1" d="M2.9,36.4c-0.5-0.4-0.7-1-0.7-1.7c0-0.7,0.2-1.3,0.7-1.7c0.4-0.4,1.1-0.6,1.9-0.6h2.5l0.1,1H4.7
			c-0.5,0-0.9,0.1-1.1,0.3c-0.3,0.2-0.4,0.5-0.4,0.9c0,0.4,0.2,0.8,0.5,1C4,35.9,4.5,36,5.1,36c0.7,0,1.2-0.1,1.5-0.2
			s0.5-0.3,0.5-0.6l0.2,1c-0.2,0.2-0.3,0.3-0.6,0.4c-0.2,0.1-0.5,0.2-0.8,0.3C5.6,37,5.3,37,4.9,37C4.1,37,3.4,36.8,2.9,36.4z
			 M7.2,32.1c0-0.6-0.2-1.1-0.5-1.4c-0.3-0.3-0.8-0.5-1.4-0.5c-0.4,0-0.7,0.1-1.1,0.2s-0.7,0.3-0.9,0.5l-0.8-0.5
			c0.3-0.3,0.7-0.6,1.1-0.8c0.5-0.2,1-0.3,1.6-0.3c0.6,0,1.2,0.1,1.6,0.3c0.4,0.2,0.8,0.5,1,1c0.2,0.4,0.4,0.9,0.4,1.5v4.9H7.2V32.1
			z"/>
	</g>
</g>
</svg>
