<?xml version="1.0" encoding="utf-8"?>
<!-- Generator: Adobe Illustrator 25.3.1, SVG Export Plug-In . SVG Version: 6.00 Build 0)  -->
<svg version="1.1" id="Layer_1" xmlns="http://www.w3.org/2000/svg" xmlns:xlink="http://www.w3.org/1999/xlink" x="0px" y="0px"
	 viewBox="0 0 48.4 42.8" style="enable-background:new 0 0 48.4 42.8;" xml:space="preserve">
<style type="text/css">
	.st0{fill:#E3E3E3;}
	.st1{fill:#F9B659;}
</style>
<g>
	<rect y="41.3" class="st0" width="48.4" height="1.5"/>
	<rect y="5.9" class="st0" width="48.4" height="1.5"/>
	<rect class="st0" width="48.4" height="1.5"/>
</g>
<path class="st0" d="M41.3,30.9H7.2c-0.4,0-0.8-0.4-0.8-0.8V12.6c0-0.4,0.4-0.8,0.8-0.8h34.1c0.4,0,0.8,0.4,0.8,0.8V30
	C42.1,30.5,41.7,30.9,41.3,30.9z M8,29.2h32.5V13.4H8V29.2z"/>
<ellipse class="st0" cx="18.1" cy="17.5" rx="1.5" ry="1.6"/>
<path class="st0" d="M7.6,28.5c-0.3,0-0.7-0.1-0.9-0.2c-0.5-0.3-0.5-0.9,0-1.2l7.8-5c0.5-0.3,1.1-0.4,1.7-0.1l7.7,3.7l7-6.1
	c0.5-0.4,1.1-0.4,1.7-0.2l8.9,3.8c0.6,0.2,0.8,0.8,0.3,1.2c-0.3,0.4-1.3,0.5-1.8,0.2l-7.9-3.4l-7,6.1c-0.2,0.1-0.5,0.3-0.8,0.3
	s-0.7,0-0.9-0.1l-7.9-3.7l-7,4.5C8.3,28.4,8,28.5,7.6,28.5z"/>
<rect x="37.8" y="14.5" class="st1" width="1.5" height="6.9"/>
<rect x="6" y="35.4" class="st0" width="36.4" height="1.5"/>
<rect x="6" y="32.6" class="st0" width="36.4" height="1.5"/>
</svg>
