<?xml version="1.0" encoding="utf-8"?>
<!-- Generator: Adobe Illustrator 25.3.1, SVG Export Plug-In . SVG Version: 6.00 Build 0)  -->
<svg version="1.1" id="Layer_1" xmlns="http://www.w3.org/2000/svg" xmlns:xlink="http://www.w3.org/1999/xlink" x="0px" y="0px"
	 viewBox="0 0 48.4 42.8" style="enable-background:new 0 0 48.4 42.8;" xml:space="preserve">
<style type="text/css">
	.st0{fill:#E3E3E3;}
	.st1{fill:#F9B659;}
	.st2{fill:#FFFFFF;}
</style>
<path class="st0" d="M47.6,42.8H0.8C0.4,42.8,0,42.3,0,42V0.8C0,0.4,0.4,0,0.8,0h46.8c0.4,0,0.8,0.4,0.8,0.8v41
	C48.4,42.3,48,42.8,47.6,42.8z M1.6,41h45.2V1.5H1.6V41z"/>
<rect x="6.4" y="15.7" class="st0" width="20.4" height="1.5"/>
<rect x="6.4" y="20.9" class="st1" width="36.4" height="1.5"/>
<rect x="6.4" y="26.1" class="st1" width="36.4" height="1.5"/>
<rect x="6.4" y="31.3" class="st1" width="36.4" height="1.5"/>
<rect x="6.4" y="36.5" class="st1" width="36.4" height="1.5"/>
<rect x="6.4" y="10.4" class="st0" width="20.4" height="1.5"/>
<rect x="6.4" y="5.2" class="st0" width="20.4" height="1.5"/>
<circle class="st1" cx="35.8" cy="12.2" r="7"/>
<g>
	<g>
		<path class="st2" d="M35.3,13.8c0.1-0.5,0.3-0.8,0.5-1.2c0.2-0.3,0.4-0.7,0.7-1.1c0.2-0.3,0.4-0.5,0.5-0.7s0.2-0.4,0.3-0.7
			c0.1-0.2,0.1-0.5,0.1-0.8l0,0c0-0.6-0.1-1.1-0.4-1.4c-0.3-0.3-0.7-0.5-1.3-0.5s-1,0.2-1.3,0.6c-0.3,0.4-0.5,0.9-0.5,1.7l0,0h-1.1
			l0,0c0-0.7,0.2-1.3,0.4-1.8s0.6-0.9,1-1.1c0.4-0.3,0.9-0.4,1.5-0.4s1.2,0.1,1.6,0.3c0.4,0.2,0.8,0.6,1,1s0.3,1,0.3,1.6l0,0
			c0,0.4-0.1,0.7-0.2,1.1c-0.1,0.4-0.2,0.6-0.4,0.8s-0.4,0.5-0.6,0.8c-0.3,0.4-0.5,0.7-0.7,0.9c-0.2,0.3-0.3,0.6-0.4,1
			s-0.2,0.8-0.2,1.3H35C35.1,14.8,35.2,14.3,35.3,13.8z M35,16.7h1.3V18H35V16.7z"/>
	</g>
</g>
</svg>
