<?xml version="1.0" encoding="utf-8"?>
<!-- Generator: Adobe Illustrator 25.3.1, SVG Export Plug-In . SVG Version: 6.00 Build 0)  -->
<svg version="1.1" id="Layer_1" xmlns="http://www.w3.org/2000/svg" xmlns:xlink="http://www.w3.org/1999/xlink" x="0px" y="0px"
	 viewBox="0 0 48.4 42.8" style="enable-background:new 0 0 48.4 42.8;" xml:space="preserve">
<style type="text/css">
	.st0{fill:#E3E3E3;}
	.st1{fill:none;stroke:#F9B659;stroke-width:1.5;stroke-miterlimit:10;}
	.st2{fill:#FFFFFF;stroke:#F9B659;stroke-width:1.5;stroke-miterlimit:10;}
	.st3{fill:#F9B659;}
</style>
<g>
	<rect y="41.3" class="st0" width="48.4" height="1.5"/>
	<rect class="st0" width="48.4" height="1.5"/>
</g>
<g>
	<path class="st1" d="M44.1,25.7c0,3.3-2.7,6-6,6H9.7c-3.3,0-6-2.7-6-6V11.4c0-3.3,2.7-6,6-6h28.4c3.3,0,6,2.7,6,6V25.7z"/>
</g>
<path class="st2" d="M37.8,29.1c0,0-5.1,9.3-16,9.3c0,0,7.8-2,7.5-9.3"/>
<polyline class="st3" points="37.1,12.3 37.1,13.8 10.7,13.8 10.7,12.3 "/>
<polyline class="st3" points="10.7,24.1 10.7,22.6 37.1,22.6 37.1,24.1 "/>
<polyline class="st3" points="10.7,18.9 10.7,17.4 37.1,17.4 37.1,18.9 "/>
</svg>
