<?xml version="1.0" encoding="utf-8"?>
<!-- Generator: Adobe Illustrator 25.3.1, SVG Export Plug-In . SVG Version: 6.00 Build 0)  -->
<svg version="1.1" id="Layer_1" xmlns="http://www.w3.org/2000/svg" xmlns:xlink="http://www.w3.org/1999/xlink" x="0px" y="0px"
	 viewBox="0 0 48.4 42.8" style="enable-background:new 0 0 48.4 42.8;" xml:space="preserve">
<style type="text/css">
	.st0{fill:#E3E3E3;}
	.st1{fill:#F9B659;}
</style>
<g>
	<rect x="7" y="35.4" class="st0" width="34.4" height="1.5"/>
	<rect x="7" y="32.6" class="st0" width="34.4" height="1.5"/>
	<rect y="41.3" class="st0" width="48.4" height="1.5"/>
	<rect x="7" y="5.9" class="st1" width="34.4" height="1.5"/>
	<rect x="7" y="8.4" class="st1" width="34.4" height="1.5"/>
	<rect class="st0" width="48.4" height="1.5"/>
</g>
<path class="st0" d="M40.3,30.9H8.2c-0.4,0-0.8-0.4-0.8-0.8V12.6c0-0.4,0.4-0.8,0.8-0.8h32.1c0.4,0,0.8,0.4,0.8,0.8V30
	C41.1,30.5,40.7,30.9,40.3,30.9z M9,29.2h30.5V13.4H9V29.2z"/>
<rect x="42.8" y="11.8" class="st0" width="1.5" height="13.7"/>
<rect x="14.2" y="22.1" class="st1" width="1.5" height="3.4"/>
<rect x="17" y="19.2" class="st1" width="1.5" height="6.3"/>
<rect x="19.9" y="20.7" class="st1" width="1.5" height="4.8"/>
<rect x="22.7" y="16.5" class="st1" width="1.5" height="9"/>
<rect x="12.4" y="25.5" class="st1" width="13.7" height="0.8"/>
<rect x="29.8" y="25.4" class="st0" width="6.9" height="0.8"/>
<rect x="29.8" y="23.8" class="st0" width="6.9" height="0.8"/>
<rect x="29.8" y="22.2" class="st0" width="6.9" height="0.8"/>
<rect x="29.8" y="20.7" class="st0" width="6.9" height="0.8"/>
</svg>
