<?xml version="1.0" encoding="utf-8"?>
<!-- Generator: Adobe Illustrator 25.3.1, SVG Export Plug-In . SVG Version: 6.00 Build 0)  -->
<svg version="1.1" id="Layer_1" xmlns="http://www.w3.org/2000/svg" xmlns:xlink="http://www.w3.org/1999/xlink" x="0px" y="0px"
	 viewBox="0 0 48.4 42.8" style="enable-background:new 0 0 48.4 42.8;" xml:space="preserve">
<style type="text/css">
	.st0{fill:#E3E3E3;}
	.st1{fill:#F9B659;}
</style>
<g>
	<rect y="41.3" class="st0" width="48.4" height="1.5"/>
	<rect y="5.9" class="st0" width="48.4" height="1.5"/>
	<rect class="st0" width="48.4" height="1.5"/>
</g>
<path class="st0" d="M35.3,30.9H13.2c-0.4,0-0.8-0.4-0.8-0.8V12.6c0-0.4,0.4-0.8,0.8-0.8h22.1c0.4,0,0.8,0.4,0.8,0.8V30
	C36.1,30.5,35.7,30.9,35.3,30.9z M14,29.2h20.5V13.4H14V29.2z"/>
<ellipse class="st0" cx="18.1" cy="17.5" rx="1.5" ry="1.6"/>
<path class="st0" d="M13.7,28.5c-0.2,0-0.4-0.1-0.6-0.2c-0.3-0.3-0.3-0.9,0-1.2l5-5c0.3-0.3,0.7-0.4,1.1-0.1l4.9,3.7l4.5-6.1
	c0.3-0.4,0.7-0.4,1.1-0.2l5.7,3.8c0.4,0.2,0.5,0.8,0.2,1.2c-0.2,0.4-0.8,0.5-1.2,0.2l-5.1-3.4l-4.5,6.1c-0.1,0.1-0.3,0.3-0.5,0.3
	s-0.4,0-0.6-0.1l-5.1-3.7l-4.5,4.5C14.1,28.4,13.9,28.5,13.7,28.5z"/>
<rect x="37.8" y="11.8" class="st1" width="1.5" height="13.7"/>
<rect x="12" y="35.4" class="st0" width="24.4" height="1.5"/>
<rect x="12" y="32.6" class="st0" width="24.4" height="1.5"/>
</svg>
