<?xml version="1.0" encoding="utf-8"?>
<!-- Generator: Adobe Illustrator 25.3.1, SVG Export Plug-In . SVG Version: 6.00 Build 0)  -->
<svg version="1.1" id="Layer_1" xmlns="http://www.w3.org/2000/svg" xmlns:xlink="http://www.w3.org/1999/xlink" x="0px" y="0px"
	 viewBox="0 0 48.4 42.8" style="enable-background:new 0 0 48.4 42.8;" xml:space="preserve">
<style type="text/css">
	.st0{fill:#E3E3E3;}
	.st1{fill:#F9B659;}
</style>
<rect y="41.3" class="st0" width="48.4" height="1.5"/>
<rect class="st0" width="48.4" height="1.5"/>
<path class="st0" d="M47.6,36H0.8C0.4,36,0,35.5,0,35.2V7.7c0-0.4,0.4-0.8,0.8-0.8h46.8c0.4,0,0.8,0.4,0.8,0.8V35
	C48.4,35.5,48,36,47.6,36z M1.6,34.2h45.2V8.4H1.6V34.2z"/>
<rect x="8.6" y="23.1" class="st1" width="33.4" height="1.5"/>
<rect x="8.6" y="26.8" class="st1" width="33.4" height="1.5"/>
<rect x="5.6" y="30.2" class="st0" width="36.4" height="1.5"/>
<rect x="8.6" y="19.4" class="st1" width="33.4" height="1.5"/>
<rect x="8.6" y="11.1" class="st0" width="33.4" height="5.9"/>
</svg>
