<?xml version="1.0" encoding="utf-8"?>
<!-- Generator: Adobe Illustrator 25.3.1, SVG Export Plug-In . SVG Version: 6.00 Build 0)  -->
<svg version="1.1" id="Layer_1" xmlns="http://www.w3.org/2000/svg" xmlns:xlink="http://www.w3.org/1999/xlink" x="0px" y="0px"
	 viewBox="0 0 48.4 42.8" style="enable-background:new 0 0 48.4 42.8;" xml:space="preserve">
<style type="text/css">
	.st0{fill:#F9B659;}
	.st1{fill:#E3E3E3;}
</style>
<g>
	<rect x="4" y="23.6" class="st0" width="40.4" height="1.5"/>
	<rect y="29.5" class="st1" width="48.4" height="1.5"/>
	<rect y="35.4" class="st1" width="48.4" height="1.5"/>
	<rect y="41.3" class="st1" width="48.4" height="1.5"/>
	<rect x="14" y="17.7" class="st1" width="30.4" height="1.5"/>
	<rect x="14" y="11.8" class="st1" width="30.4" height="1.5"/>
	<rect y="5.9" class="st1" width="48.4" height="1.5"/>
	<rect class="st1" width="48.4" height="1.5"/>
</g>
<path class="st1" d="M11.1,19.9H3c-0.4,0-0.8-0.4-0.8-0.8v-7.5c0-0.4,0.4-0.8,0.8-0.8h8.1c0.4,0,0.8,0.4,0.8,0.8V19
	C11.9,19.5,11.5,19.9,11.1,19.9z M3.8,18.2h6.5v-5.8H3.8V18.2z"/>
</svg>
