<?xml version="1.0" encoding="utf-8"?>
<!-- Generator: Adobe Illustrator 25.3.1, SVG Export Plug-In . SVG Version: 6.00 Build 0)  -->
<svg version="1.1" id="Layer_1" xmlns="http://www.w3.org/2000/svg" xmlns:xlink="http://www.w3.org/1999/xlink" x="0px" y="0px"
	 viewBox="0 0 48.4 42.8" style="enable-background:new 0 0 48.4 42.8;" xml:space="preserve">
<style type="text/css">
	.st0{fill:#F9B659;}
	.st1{fill:#E3E3E3;}
</style>
<g>
	<rect x="24.2" y="20.4" class="st0" width="15.1" height="1.5"/>
	<rect x="24.2" y="17.7" class="st0" width="15.1" height="1.5"/>
	<rect x="24.2" y="15.1" class="st1" width="8.3" height="1.5"/>
	<rect y="41.3" class="st1" width="48.4" height="1.5"/>
	<rect y="5.9" class="st1" width="48.4" height="1.5"/>
	<rect class="st1" width="48.4" height="1.5"/>
</g>
<path class="st1" d="M42.3,36.9H4.2c-0.4,0-0.8-0.4-0.8-0.8V12.6c0-0.4,0.4-0.8,0.8-0.8h38.1c0.4,0,0.8,0.4,0.8,0.8V36
	C43.1,36.5,42.7,36.9,42.3,36.9z M5,35.2h36.5V13.4H5V35.2z"/>
<ellipse class="st1" cx="9.1" cy="16.5" rx="1.5" ry="1.6"/>
<path class="st1" d="M4.8,32.5c-0.3,0-0.7-0.1-1-0.2c-0.5-0.3-0.5-0.9,0-1.2l8.7-5c0.5-0.3,1.2-0.4,1.9-0.1l8.5,3.7l7.8-6.1
	c0.5-0.4,1.2-0.4,1.9-0.2l9.9,3.8c0.7,0.2,0.9,0.8,0.3,1.2c-0.3,0.4-1.4,0.5-2.1,0.2l-8.8-3.4l-7.8,6.1c-0.2,0.1-0.5,0.3-0.9,0.3
	s-0.7,0-1-0.1l-8.8-3.7l-7.8,4.5C5.5,32.4,5.2,32.5,4.8,32.5z"/>
<rect x="44.8" y="11.8" class="st1" width="1.5" height="13.7"/>
</svg>
