<?xml version="1.0" encoding="utf-8"?>
<!-- Generator: Adobe Illustrator 25.3.1, SVG Export Plug-In . SVG Version: 6.00 Build 0)  -->
<svg version="1.1" id="Layer_1" xmlns="http://www.w3.org/2000/svg" xmlns:xlink="http://www.w3.org/1999/xlink" x="0px" y="0px"
	 viewBox="0 0 48.4 42.8" style="enable-background:new 0 0 48.4 42.8;" xml:space="preserve">
<style type="text/css">
	.st0{fill:#E3E3E3;}
	.st1{fill:#F9B659;}
</style>
<g>
	<rect y="41.3" class="st0" width="48.4" height="1.5"/>
	<rect x="8.4" y="4.5" class="st1" width="31.8" height="2"/>
	<rect class="st0" width="48.4" height="1.5"/>
</g>
<path class="st1" d="M38.8,23.6c0,7.9-6.4,14.3-14.3,14.4C16.5,38,10,31.6,10,23.5c0-8,6.5-14.5,14.6-14.4
	C32.5,9.2,38.8,15.6,38.8,23.6z M14.5,15.3C9.6,20.5,11,29.2,14.9,32c0.7-0.5,1.4-1,2.2-1.6c-1.3-4.5-1.1-8.9-0.2-13.3
	C16.1,16.4,15.3,15.9,14.5,15.3z M31.7,30.4c0.9,0.6,1.7,1.2,2.4,1.7c4.8-4.8,3.9-14,0-16.7c-0.7,0.6-1.5,1.2-2.3,1.8
	C33,21.6,32.9,25.9,31.7,30.4z M18.5,17.9c-1.2,3.2-1.2,8.2,0.1,11.6c1.7-0.4,3.3-0.8,5-1.2c0-3.1,0-6.1,0-9.1
	C21.8,18.8,20.1,18.4,18.5,17.9z M25.3,19.2c0,3.1,0,6.2,0,9.2c1.8,0.4,3.3,0.8,4.9,1.2c1.3-3.5,1.4-8,0.1-11.6
	C28.8,18.3,27.2,18.7,25.3,19.2z M23.6,10.7c-2.8,1-3.9,3.2-4.9,5.8c1.7,0.5,3.2,0.8,4.9,1.3C23.6,15.3,23.6,13.2,23.6,10.7z
	 M25.3,17.8c1.6-0.4,3.1-0.8,4.9-1.3c-1.2-2.6-2.1-4.8-5-5.8c0,1.8,0,3.3,0,4.9C25.2,16.2,25.2,16.9,25.3,17.8z M23.6,29.7
	c-1.6,0.4-3.1,0.8-4.7,1.3c1,2.6,2,4.6,4.7,5.4C23.6,34.1,23.6,32.1,23.6,29.7z M29.9,31c-1.6-0.4-3-0.8-4.6-1.2c0,2.4,0,4.4,0,6.8
	C27.8,35.4,29,33.5,29.9,31z M19.3,12.1c-0.1-0.1-0.2-0.3-0.3-0.4c-1.1,0.7-2.2,1.5-3.5,2.4c0.9,0.6,1.4,1,2,1.4
	C18.1,14.3,18.7,13.2,19.3,12.1z M29.9,11.8c-0.1,0.1-0.2,0.3-0.3,0.4c0.6,1.1,1.2,2.2,1.9,3.5c0.7-0.6,1.2-1.1,1.9-1.7
	C32.1,13.1,31,12.4,29.9,11.8z M18.9,35.3c0.1-0.1,0.2-0.2,0.3-0.4c-0.6-1-1.1-2-1.8-3.2c-0.6,0.6-1.1,1-1.7,1.6
	C17,34.1,17.9,34.7,18.9,35.3z M31.3,31.8c-0.7,1.3-1.2,2.3-1.7,3.2c0.1,0.1,0.2,0.2,0.3,0.3c1-0.7,2-1.4,3.3-2.2
	C32.4,32.6,31.9,32.3,31.3,31.8z"/>
</svg>
