<?xml version="1.0" encoding="utf-8"?>
<!-- Generator: Adobe Illustrator 25.3.1, SVG Export Plug-In . SVG Version: 6.00 Build 0)  -->
<svg version="1.1" id="Layer_1" xmlns="http://www.w3.org/2000/svg" xmlns:xlink="http://www.w3.org/1999/xlink" x="0px" y="0px"
	 viewBox="0 0 48.4 42.8" style="enable-background:new 0 0 48.4 42.8;" xml:space="preserve">
<style type="text/css">
	.st0{fill:#E3E3E3;}
	.st1{fill:#F9B659;}
	.st2{fill:#FFFFFF;}
</style>
<g>
	<rect x="4" y="23.6" class="st0" width="24.4" height="1.5"/>
	<rect x="10.8" y="29.5" class="st0" width="33.6" height="1.5"/>
	<rect y="41.3" class="st0" width="48.4" height="1.5"/>
	<rect x="4" y="17.7" class="st0" width="24.4" height="1.5"/>
	<rect x="4" y="11.8" class="st0" width="24.4" height="1.5"/>
	<rect class="st0" width="48.4" height="1.5"/>
</g>
<circle class="st1" cx="37.4" cy="18.8" r="7"/>
<g>
	<g>
		<path class="st2" d="M36.9,20.4c0.1-0.5,0.3-0.8,0.5-1.2c0.2-0.3,0.4-0.7,0.7-1.1c0.2-0.3,0.4-0.5,0.5-0.7s0.2-0.4,0.3-0.7
			c0.1-0.2,0.1-0.5,0.1-0.8l0,0c0-0.6-0.1-1.1-0.4-1.4c-0.3-0.3-0.7-0.5-1.3-0.5s-1,0.2-1.3,0.6c-0.3,0.4-0.5,0.9-0.5,1.7l0,0h-1.1
			l0,0c0-0.7,0.2-1.3,0.4-1.8s0.6-0.9,1-1.1c0.4-0.3,0.9-0.4,1.5-0.4s1.2,0.1,1.6,0.3c0.4,0.2,0.8,0.6,1,1s0.3,1,0.3,1.6l0,0
			c0,0.4-0.1,0.7-0.2,1.1s-0.2,0.6-0.4,0.8c-0.2,0.2-0.4,0.5-0.6,0.8c-0.3,0.4-0.5,0.7-0.7,0.9c-0.2,0.3-0.3,0.6-0.4,1
			s-0.2,0.8-0.2,1.3h-1.1C36.7,21.4,36.8,20.9,36.9,20.4z M36.6,23.3h1.3v1.3h-1.3V23.3z"/>
	</g>
</g>
<path class="st1" d="M48.4,36c0,0.5-0.4,0.9-0.9,0.9H0.9C0.4,36.9,0,36.5,0,36V6.8c0-0.5,0.4-0.9,0.9-0.9h46.6
	c0.5,0,0.9,0.4,0.9,0.9V36z M1.8,35.2h44.8V7.7H1.8V35.2z"/>
<g>
	<g>
		<path class="st1" d="M4.3,33.2c-0.4-0.4-0.6-0.9-0.6-1.5c0-0.6,0.2-1.1,0.6-1.4c0.4-0.3,0.9-0.5,1.6-0.5h2.2l0.1,0.9H5.9
			c-0.4,0-0.8,0.1-1,0.3c-0.2,0.2-0.3,0.5-0.3,0.8c0,0.4,0.1,0.7,0.4,0.9c0.3,0.2,0.7,0.3,1.2,0.3c0.6,0,1-0.1,1.3-0.2
			S8,32.4,8,32.2L8.2,33c-0.1,0.1-0.3,0.3-0.5,0.4c-0.2,0.1-0.4,0.2-0.7,0.2c-0.3,0.1-0.5,0.1-0.9,0.1C5.3,33.7,4.7,33.5,4.3,33.2z
			 M8,29.4c0-0.5-0.1-0.9-0.4-1.2c-0.3-0.3-0.7-0.4-1.2-0.4c-0.3,0-0.6,0.1-0.9,0.2s-0.6,0.2-0.8,0.4L4,27.9c0.2-0.3,0.6-0.5,1-0.7
			c0.4-0.2,0.9-0.3,1.4-0.3c0.5,0,1,0.1,1.4,0.3s0.7,0.5,0.9,0.8s0.3,0.8,0.3,1.3v4.2H8V29.4z"/>
	</g>
</g>
</svg>
