<?xml version="1.0" encoding="utf-8"?>
<!-- Generator: Adobe Illustrator 25.3.1, SVG Export Plug-In . SVG Version: 6.00 Build 0)  -->
<svg version="1.1" id="Layer_1" xmlns="http://www.w3.org/2000/svg" xmlns:xlink="http://www.w3.org/1999/xlink" x="0px" y="0px"
	 viewBox="0 0 48.4 42.8" style="enable-background:new 0 0 48.4 42.8;" xml:space="preserve">
<style type="text/css">
	.st0{fill:#E3E3E3;}
	.st1{fill:#F9B659;}
	.st2{fill:#FFFFFF;}
</style>
<g>
	<rect x="4" y="23.6" class="st0" width="24.4" height="1.5"/>
	<rect x="4" y="29.5" class="st0" width="40.4" height="1.5"/>
	<rect y="41.3" class="st0" width="48.4" height="1.5"/>
	<rect x="4" y="17.7" class="st0" width="24.4" height="1.5"/>
	<rect x="4" y="11.8" class="st0" width="24.4" height="1.5"/>
	<rect class="st0" width="48.4" height="1.5"/>
</g>
<circle class="st1" cx="37.4" cy="18.8" r="7"/>
<g>
	<g>
		<path class="st2" d="M36.9,20.4c0.1-0.5,0.3-0.8,0.5-1.2c0.2-0.3,0.4-0.7,0.7-1.1c0.2-0.3,0.4-0.5,0.5-0.7
			c0.1-0.2,0.2-0.4,0.3-0.7c0.1-0.2,0.1-0.5,0.1-0.8v0c0-0.6-0.1-1.1-0.4-1.4c-0.3-0.3-0.7-0.5-1.3-0.5c-0.6,0-1,0.2-1.3,0.6
			c-0.3,0.4-0.5,0.9-0.5,1.7v0h-1.1v0c0-0.7,0.2-1.3,0.4-1.8c0.2-0.5,0.6-0.9,1-1.1c0.4-0.3,0.9-0.4,1.5-0.4c0.6,0,1.2,0.1,1.6,0.3
			c0.4,0.2,0.8,0.6,1,1c0.2,0.4,0.3,1,0.3,1.6v0c0,0.4-0.1,0.7-0.2,1.1s-0.2,0.6-0.4,0.8c-0.2,0.2-0.4,0.5-0.6,0.8
			c-0.3,0.4-0.5,0.7-0.7,0.9c-0.2,0.3-0.3,0.6-0.4,1s-0.2,0.8-0.2,1.3h-1.1C36.7,21.4,36.8,20.9,36.9,20.4z M36.6,23.3h1.3v1.3h-1.3
			V23.3z"/>
	</g>
</g>
<path class="st1" d="M48.4,36c0,0.5-0.4,0.9-0.9,0.9H0.9C0.4,36.9,0,36.5,0,36V6.8c0-0.5,0.4-0.9,0.9-0.9h46.6
	c0.5,0,0.9,0.4,0.9,0.9C48.4,6.8,48.4,36,48.4,36z M1.8,35.2h44.8V7.7H1.8V35.2z"/>
</svg>
