<?xml version="1.0" encoding="utf-8"?>
<!-- Generator: Adobe Illustrator 25.3.1, SVG Export Plug-In . SVG Version: 6.00 Build 0)  -->
<svg version="1.1" id="Layer_1" xmlns="http://www.w3.org/2000/svg" xmlns:xlink="http://www.w3.org/1999/xlink" x="0px" y="0px"
	 viewBox="0 0 48.4 42.8" style="enable-background:new 0 0 48.4 42.8;" xml:space="preserve">
<style type="text/css">
	.st0{fill:#E3E3E3;}
	.st1{fill:#F9B659;}
</style>
<rect x="7" y="35.3" class="st0" width="34.4" height="1.5"/>
<rect x="13" y="30.4" class="st0" width="28.4" height="1.5"/>
<rect x="13" y="25.6" class="st0" width="28.4" height="1.5"/>
<rect x="13" y="20.7" class="st0" width="28.4" height="1.5"/>
<rect x="13" y="15.8" class="st0" width="28.4" height="1.5"/>
<rect x="13" y="6" class="st1" width="28.4" height="6.5"/>
<path class="st0" d="M47.6,42.8H0.8C0.4,42.8,0,42.3,0,42V0.8C0,0.4,0.4,0,0.8,0h46.8c0.4,0,0.8,0.4,0.8,0.8v41
	C48.4,42.3,48,42.8,47.6,42.8z M1.6,41h45.2V1.5H1.6V41z"/>
</svg>
